<svg width="893" height="472" viewBox="0 0 893 472" fill="none" xmlns="http://www.w3.org/2000/svg">
<g clip-path="url(#clip0_884_10372)">
<path d="M817.135 112.043C812.604 114.106 810.946 113.7 810.946 113.7L809.712 115.763H807.244C799.821 115.763 783.742 107.512 780.039 107.106C776.337 106.701 754.88 110.403 754.88 110.403C753.347 106.941 752.108 103.355 751.178 99.6838C749.115 92.2612 758.23 81.1185 758.23 81.1185C764.983 81.0997 771.73 80.6877 778.435 79.8844C787.092 78.6502 784.2 73.2904 784.2 73.2904C784.2 73.2904 768.668 62.8354 755.11 58.8685C756.424 56.7894 757.556 54.601 758.495 52.3275C759.497 49.4624 760.235 46.5117 760.699 43.5121C760.973 40.1015 760.308 36.6809 758.777 33.6212C757.119 29.76 759.87 29.2135 762.62 27.2917C765.371 25.3699 767.292 24.5413 766.464 21.7909C765.635 19.0405 762.938 21.5264 762.938 21.5264C762.656 18.776 761.827 11.0714 758.812 7.22787C755.797 3.38435 754.968 7.77442 754.968 7.77442C759.623 12.7287 759.623 25.0879 757.437 26.1986C755.251 27.3093 754.686 20.9094 754.686 20.9094C754.969 18.1413 755.233 14.5799 753.029 14.0334C750.825 13.4868 752.5 20.6273 750.561 18.1413C748.967 15.9417 747.501 13.6517 746.171 11.283C747.546 7.7568 746.171 4.40694 744.795 4.14248C743.42 3.87801 743.702 7.98598 743.702 7.98598C739.577 3.57828 737.373 -0.829411 732.701 1.10998C728.029 3.04937 732.419 5.78213 732.419 5.78213C735.599 6.86968 738.443 8.76527 740.67 11.283C744.196 11.283 754.775 31.8933 756.89 39.3159C758.512 44.8167 753.805 53.6321 751.266 57.8283C750.702 57.7225 750.155 57.6167 749.609 57.5462C743.403 56.647 739.489 58.3572 737.073 61.1781C733.917 58.3572 735.063 54.9721 735.557 50.0354C736.104 44.5346 732.524 46.1919 731.696 47.285C730.867 48.3782 733.071 53.3324 730.338 52.2393C728.446 51.2646 726.905 49.7237 725.931 47.8316C726.55 44.2886 726.921 40.7067 727.041 37.1121C726.759 34.9082 724.291 34.0796 724.009 38.7694C723.727 43.4592 722.087 45.0812 722.087 45.0812C716.798 39.5804 719.055 34.9082 719.055 34.9082C719.055 34.9082 721.805 27.7677 724.344 26.9391C726.883 26.1104 730.391 22.0025 728.734 20.8917C727.077 19.781 725.701 22.0025 725.701 22.0025C726.266 19.7986 728.187 14.0333 725.155 13.4692C722.122 12.905 722.687 16.7661 722.687 16.7661C723.78 25.846 715.81 30.5181 715.81 30.5181C715.81 30.5181 714.717 23.6421 713.889 20.3452C713.06 17.0482 716.375 15.0559 717.75 14.2978C719.125 13.5397 717.468 11.5474 717.468 11.5474C716.093 11.0009 712.514 14.5799 712.514 14.5799C712.514 14.5799 714.982 7.42179 719.107 4.95348C723.233 2.48517 718.843 0.0168762 718.843 0.0168762C711.967 1.93863 708.406 15.3909 708.406 15.3909C708.935 30.7826 717.468 48.6602 717.468 48.6602C722.263 53.9495 731.572 60.1908 735.892 62.9412C734.023 66.62 733.223 70.749 733.582 74.8596C733.988 82.2822 728.293 89.2816 711.315 103.298C694.336 117.315 664.329 110.721 644.529 112.378C624.73 114.035 615.262 131.331 615.262 131.331C612.371 130.097 614.028 122.269 614.028 122.269C611.136 123.503 609.902 132.16 609.902 132.16C607.416 131.331 606.605 125.566 606.605 125.566C603.308 130.502 608.245 141.24 608.245 141.24C607.587 141.104 606.971 140.817 606.444 140.401C605.918 139.984 605.496 139.45 605.212 138.842C603.555 149.156 610.978 157.812 610.978 157.812C607.681 169.766 588.71 181.314 588.71 181.314L573.054 200.267L575.117 202.753L573.459 203.564L571.397 203.159L567.694 210.987L572.225 214.302L577.991 208.519L574.711 208.131L594.511 185.034C606.081 179.368 615.907 170.682 622.949 159.893L627.075 160.722C627.48 167.774 611.824 185.863 606.87 186.286C601.916 186.709 599.465 191.575 599.465 191.575L585.025 214.266L585.854 217.14H582.134L580.071 221.689L587.494 222.5L591.619 217.211L590.385 215.148L592.853 213.914L605.636 192.88C635.326 185.828 655.108 171.864 660.467 165.27C665.827 158.676 674.484 152.082 714.894 146.3C755.304 140.517 749.926 129.392 757.349 126.518C764.771 123.644 784.147 126.518 784.147 126.518L788.679 145.065L787.462 148.362L788.273 152.488L795.696 152.082V146.793H793.227L792.399 144.73L793.633 142.668C793.633 142.668 792.804 131.948 791.57 125.76C790.336 119.571 785.805 118.707 785.805 118.707L757.772 119.131L781.274 115.005L783.619 115.728L806.821 122.78L809.712 123.203L815.477 121.14C817.54 119.977 817.135 112.043 817.135 112.043Z" fill="#1B1425"/>
<path d="M628.415 202.683C624.236 204.569 622.72 204.199 622.72 204.199L621.591 206.086H619.317C612.476 206.086 597.702 198.504 594.281 198.134C590.861 197.764 571.15 201.167 571.15 201.167C569.731 197.979 568.587 194.676 567.729 191.293C565.843 184.47 574.182 174.227 574.182 174.227C580.393 174.209 586.598 173.833 592.765 173.098C600.734 171.952 598.054 167.033 598.054 167.033C598.054 167.033 583.773 157.407 571.291 153.757C572.503 151.841 573.547 149.824 574.412 147.728C575.325 145.101 576.003 142.399 576.439 139.653C576.689 136.511 576.08 133.36 574.676 130.538C573.16 127.011 575.699 126.5 578.202 124.737C580.706 122.974 582.504 122.198 581.728 119.677C580.952 117.156 578.431 119.413 578.431 119.413C578.184 116.891 577.426 109.804 574.641 106.278C571.855 102.752 571.114 106.771 571.114 106.771C575.416 111.338 575.416 122.639 573.389 123.715C571.361 124.79 570.868 118.919 570.868 118.919C571.115 116.38 571.379 113.101 569.351 112.59C567.324 112.078 568.84 118.655 567.077 116.38C565.613 114.354 564.265 112.247 563.04 110.068C564.291 106.771 563.04 103.739 561.77 103.492C560.501 103.245 560.748 107.018 560.748 107.018C556.957 102.963 554.947 98.9256 550.645 100.689C546.343 102.452 550.398 104.991 550.398 104.991C553.318 105.998 555.929 107.741 557.98 110.051C561.259 110.051 570.868 129.004 572.895 135.827C574.394 140.887 570.057 148.997 567.712 152.858C567.2 152.77 566.707 152.664 566.196 152.594C560.501 151.783 556.904 153.352 554.665 155.961C551.756 153.352 552.902 150.231 553.272 145.683C553.766 140.64 550.486 142.156 549.746 143.161C549.006 144.166 551.015 148.715 548.477 147.71C546.74 146.821 545.328 145.409 544.439 143.673C545.011 140.416 545.347 137.122 545.444 133.817C545.197 131.789 542.923 131.031 542.658 135.333C542.394 139.635 540.895 141.134 540.895 141.134C536.1 136.074 538.11 131.789 538.11 131.789C538.11 131.789 540.649 125.213 542.923 124.455C545.197 123.697 548.477 119.906 546.96 118.884C545.444 117.861 544.175 119.906 544.175 119.906C544.686 117.879 546.449 112.572 543.681 112.061C540.913 111.549 541.407 115.093 541.407 115.093C542.412 123.45 535.077 127.734 535.077 127.734C535.077 127.734 534.072 121.423 533.314 118.39C532.556 115.358 535.588 113.577 536.84 112.819C538.092 112.061 536.576 110.298 536.576 110.298C535.324 109.786 532.027 113.083 532.027 113.083C532.027 113.083 534.301 106.507 538.092 104.268C541.883 102.029 537.845 99.7191 537.845 99.7191C531.533 101.482 528.236 113.824 528.236 113.824C528.748 127.928 536.576 144.413 536.576 144.413C541.001 149.209 549.623 154.992 553.537 157.548C551.811 160.931 551.072 164.731 551.403 168.514C551.791 175.338 546.484 181.79 530.934 194.679C515.384 207.567 487.703 201.502 469.491 203.018C451.278 204.534 442.586 220.472 442.586 220.472C439.924 219.344 441.458 212.133 441.458 212.133C438.795 213.279 437.667 221.248 437.667 221.248C435.375 220.472 434.617 215.165 434.617 215.165C431.584 219.732 436.133 229.588 436.133 229.588C435.549 229.434 435.007 229.149 434.549 228.755C434.091 228.361 433.728 227.868 433.489 227.313C431.972 236.781 438.778 244.75 438.778 244.75C435.763 255.734 418.326 266.312 418.326 266.312L403.904 283.767L405.808 286.041L404.292 286.799L402.388 286.412L398.932 293.693L403.111 296.726L408.4 291.436L405.367 291.066L423.615 269.839C434.26 264.624 443.299 256.632 449.779 246.707L453.57 247.465C453.94 253.9 439.465 270.597 434.987 270.967C433.544 271.201 432.175 271.769 430.99 272.626C429.806 273.484 428.838 274.606 428.164 275.904L414.888 296.761L415.646 299.423H412.226L410.339 303.584L417.162 304.342L420.953 299.423L419.825 297.519L422.099 296.391L433.841 276.997C461.151 270.544 479.346 257.603 484.283 251.573C489.219 245.543 497.171 239.443 534.337 234.136C571.502 228.829 566.583 218.586 573.407 215.941C580.23 213.297 598.09 215.941 598.09 215.941L602.268 232.99L601.122 236.023L601.88 239.831L608.721 239.443V234.577H606.429L605.671 232.691L606.817 230.786C606.817 230.786 606.059 220.931 604.913 215.236C603.767 209.541 599.624 208.801 599.624 208.801L573.847 209.171L595.463 205.38L597.614 206.05L618.964 212.591L621.627 212.962L626.916 211.075C628.785 209.894 628.415 202.683 628.415 202.683Z" fill="#1B1425"/>
<path d="M706.695 222.5C702.147 224.545 700.507 224.14 700.507 224.14L699.273 226.202H696.787C689.364 226.202 673.285 217.969 669.583 217.546C665.88 217.123 644.441 220.843 644.441 220.843C642.895 217.383 641.65 213.797 640.721 210.123C638.658 202.701 647.773 191.575 647.773 191.575C654.526 191.556 661.273 191.144 667.978 190.341C676.635 189.107 673.743 183.747 673.743 183.747C673.743 183.747 658.211 173.292 644.653 169.325C645.96 167.236 647.092 165.043 648.038 162.767C649.031 159.899 649.769 156.949 650.241 153.951C650.509 150.539 649.839 147.119 648.302 144.061C646.662 140.217 649.413 139.653 652.163 137.731C654.914 135.809 656.835 134.998 656.007 132.248C655.178 129.497 652.481 131.966 652.481 131.966C652.216 129.215 651.387 121.528 648.355 117.667C645.322 113.806 644.511 118.231 644.511 118.231C649.184 123.168 649.184 135.545 646.997 136.638C644.811 137.731 644.247 131.349 644.247 131.349C644.512 128.598 644.794 125.019 642.59 124.473C640.386 123.926 642.043 131.067 640.121 128.598C638.522 126.392 637.051 124.096 635.714 121.722C637.089 118.196 635.714 114.864 634.356 114.582C632.999 114.3 633.245 118.425 633.245 118.425C629.12 114.035 626.916 109.61 622.261 111.549C617.607 113.489 621.979 116.221 621.979 116.221C625.148 117.322 627.983 119.216 630.213 121.722C633.739 121.722 644.318 142.35 646.433 149.755C648.073 155.256 643.366 164.071 640.827 168.268C640.245 168.162 639.698 168.056 639.169 167.986C632.963 167.104 629.032 168.814 626.634 171.635C623.46 168.796 624.606 165.411 625.1 160.475C625.664 154.974 622.085 156.631 621.256 157.724C620.428 158.817 622.632 163.772 619.881 162.679C617.992 161.706 616.456 160.164 615.491 158.271C616.102 154.733 616.467 151.157 616.584 147.569C616.32 145.365 613.834 144.537 613.552 149.209C613.27 153.881 611.63 155.538 611.63 155.538C606.341 150.037 608.615 145.365 608.615 145.365C608.615 145.365 611.366 138.225 613.904 137.396C616.443 136.567 619.952 132.442 618.312 131.349C616.672 130.256 615.28 132.442 615.28 132.442C615.826 130.238 617.748 124.473 614.733 123.926C611.718 123.38 612.265 127.223 612.265 127.223C613.358 136.285 605.389 140.957 605.389 140.957C605.389 140.957 604.278 134.099 603.467 130.802C602.656 127.505 605.935 125.513 607.311 124.755C608.686 123.997 607.046 122.004 607.046 122.004C605.653 121.458 602.092 125.019 602.092 125.019C602.092 125.019 604.56 117.879 608.686 115.41C612.811 112.942 608.404 110.456 608.404 110.456C601.545 112.378 597.966 125.848 597.966 125.848C598.513 141.24 607.046 159.1 607.046 159.1C611.824 164.389 621.151 170.63 625.453 173.381C623.581 177.058 622.786 181.19 623.161 185.299C623.566 192.721 617.871 199.739 600.893 213.755C583.914 227.772 553.889 221.16 534.107 222.817C514.326 224.475 504.717 241.876 504.717 241.876C501.825 240.642 503.465 232.796 503.465 232.796C500.591 234.03 499.357 242.705 499.357 242.705C496.871 241.876 496.06 236.093 496.06 236.093C492.746 241.048 497.7 251.767 497.7 251.767C497.063 251.605 496.472 251.297 495.974 250.869C495.475 250.441 495.083 249.904 494.826 249.299C493.169 259.595 500.591 268.252 500.591 268.252C497.294 280.223 478.324 291.754 478.324 291.754L462.65 310.724L464.713 313.193L463.073 314.021L461.01 313.616L457.29 321.444L461.839 324.741L467.604 318.976L464.307 318.553L484.089 295.474C495.666 289.802 505.497 281.109 512.545 270.315L516.671 271.143C517.076 278.196 501.42 296.285 496.466 296.708C491.511 297.131 489.043 301.997 489.043 301.997L474.603 324.67L475.432 327.562H471.73L469.667 332.093L477.089 332.904L481.215 327.615L479.981 325.552L482.449 324.318L495.196 303.337C524.887 296.285 544.668 282.304 550.028 275.71C555.388 269.116 564.045 262.522 604.454 256.757C644.864 250.991 639.487 239.849 646.909 236.957C654.332 234.066 673.708 236.957 673.708 236.957L678.239 255.505L677.005 258.802L677.834 262.927L685.256 262.522V257.233H682.788L681.977 255.17L683.211 253.107C683.211 253.107 682.382 242.387 681.148 236.199C679.914 230.011 675.365 229.147 675.365 229.147L647.332 229.552L670.834 225.427L673.179 226.15L696.399 233.202L699.29 233.607L705.056 231.545C707.101 230.328 706.695 222.5 706.695 222.5Z" fill="#1B1425"/>
<path d="M892.965 140.076C888.434 142.139 886.776 141.716 886.776 141.716L885.542 143.778H883.074C875.651 143.778 859.572 135.545 855.869 135.122C852.167 134.699 830.71 138.419 830.71 138.419C829.164 134.959 827.919 131.373 826.99 127.699C824.927 120.277 834.043 109.151 834.043 109.151C840.796 109.133 847.542 108.721 854.247 107.917C862.904 106.683 860.013 101.323 860.013 101.323C860.013 101.323 844.48 90.8684 830.922 86.9014C832.236 84.8163 833.369 82.622 834.307 80.3428C835.309 77.4778 836.047 74.527 836.511 71.5274C836.783 68.1169 836.119 64.6968 834.589 61.6365C832.932 57.793 835.682 57.2288 838.433 55.3071C841.183 53.3853 843.105 52.5743 842.276 49.8239C841.448 47.0735 838.75 49.5418 838.75 49.5418C838.468 46.7914 837.639 39.1044 834.624 35.2432C831.61 31.3821 830.781 35.8074 830.781 35.8074C835.435 40.744 835.435 53.1208 833.249 54.2139C831.063 55.307 830.499 48.9247 830.499 48.9247C830.781 46.1743 831.045 42.5952 828.842 42.0487C826.638 41.5021 828.313 48.6426 826.373 46.1743C824.777 43.9697 823.311 41.6738 821.983 39.2983C823.358 35.7721 821.983 32.4399 820.608 32.246C819.233 32.052 819.497 36.0895 819.497 36.0895C815.389 31.6994 813.185 27.2741 808.513 29.2135C803.841 31.1529 808.231 33.9032 808.231 33.9032C811.408 34.9902 814.25 36.8788 816.482 39.3864C820.009 39.3864 830.587 60.0145 832.703 67.4194C834.325 72.9202 829.617 81.7356 827.078 85.9318L825.421 85.6497C819.215 84.7681 815.301 86.4783 812.886 89.2992C809.73 86.4607 810.858 83.0932 811.369 78.1389C811.916 72.6381 808.337 74.2954 807.508 75.3885C806.68 76.4816 808.883 81.4359 806.133 80.3428C804.243 79.3794 802.706 77.8427 801.743 75.9527C802.362 72.4102 802.728 68.8279 802.836 65.2332C802.572 63.0294 800.086 62.2007 799.821 66.8729C799.557 71.545 797.899 73.2023 797.899 73.2023C792.61 67.7015 794.867 63.0294 794.867 63.0294C794.867 63.0294 797.617 55.977 800.156 55.0602C802.695 54.1434 806.204 50.106 804.564 49.0129C802.924 47.9197 801.531 50.106 801.531 50.106C802.096 47.9021 804.017 42.1368 800.985 41.5903C797.952 41.0437 798.517 44.8873 798.517 44.8873C799.61 53.9495 791.641 58.6217 791.641 58.6217C791.641 58.6217 790.547 51.7633 789.719 48.4663C788.89 45.1693 792.205 43.1771 793.562 42.4189C794.92 41.6608 793.298 39.6685 793.298 39.6685C791.923 39.122 788.344 42.6834 788.344 42.6834C788.344 42.6834 790.812 35.6311 794.937 33.0746C799.063 30.5182 794.673 28.1203 794.673 28.1203C787.797 30.0421 784.218 43.5121 784.218 43.5121C784.765 58.9037 793.298 76.7637 793.298 76.7637C798.093 82.053 807.402 88.2943 811.722 91.0447C809.853 94.7235 809.053 98.8525 809.412 102.963C809.818 110.386 804.123 117.403 787.145 131.419C770.166 145.436 740.159 138.842 720.359 140.481C700.56 142.121 691.092 159.452 691.092 159.452C688.201 158.218 689.858 150.372 689.858 150.372C686.966 151.606 685.732 160.281 685.732 160.281C683.246 159.452 682.435 153.669 682.435 153.669C679.138 158.624 684.075 169.343 684.075 169.343C683.438 169.181 682.848 168.873 682.349 168.445C681.851 168.017 681.458 167.48 681.201 166.875C679.544 177.171 686.966 185.828 686.966 185.828C683.669 197.799 664.699 209.33 664.699 209.33L649.043 228.3L651.105 230.769L649.448 231.597L647.385 231.192L643.683 239.02L648.214 242.317L653.979 236.552L650.682 236.129L670.482 213.05C682.051 207.373 691.876 198.682 698.92 187.891L703.046 188.719C703.451 195.772 687.795 213.878 682.841 214.284C677.887 214.689 675.418 219.573 675.418 219.573L660.996 242.246L661.631 245.156H657.911L655.848 249.687L663.271 250.515L667.396 245.226L666.162 243.163L668.63 241.929L681.413 220.896C711.103 213.843 730.885 199.862 736.245 193.268C741.604 186.674 750.261 180.08 790.671 174.315C831.081 168.55 825.703 157.407 833.126 154.516C840.548 151.624 859.925 154.516 859.925 154.516L864.456 173.081L863.222 176.378L864.05 180.503L871.473 180.08V174.791H869.004L868.176 172.728L869.41 170.665C869.41 170.665 868.581 159.946 867.347 153.757C866.113 147.569 861.582 146.705 861.582 146.705L833.549 147.111L857.104 142.897L859.449 143.602L882.651 150.654L885.542 151.06L891.307 148.997C893.37 147.904 892.965 140.076 892.965 140.076Z" fill="#1B1425"/>
<path d="M344.365 262.363C324.336 230.293 301.398 219.679 276.962 226.696C257.568 232.285 240.625 254.13 252.05 271.637C262.946 288.316 280.136 276.644 280.136 276.644C288.14 269.433 288.387 254.976 281.299 252.984C274.212 250.991 274.441 257.321 274.441 257.321C284.808 281.792 243.393 266.595 265.837 243.886C295.545 213.914 331.953 251.679 341.35 276.327C350.747 300.975 357.57 369.999 308.31 392.478C300.764 395.916 293.465 398.878 286.324 401.453L266.419 379.696C292.107 371.41 316.067 353.585 314.022 329.113C310.672 290.59 280.171 290.326 280.171 290.326C261.2 290.925 254.236 305.312 256.017 316.366C257.798 327.421 267.935 326.134 269.663 321.127C271.391 316.119 263.968 314.18 263.968 314.18C268.499 297.572 290.661 301.38 294.663 322.361C298.666 343.341 266.454 362.242 239.497 347.308C216.682 334.667 206.862 326.028 176.89 340.08C176.572 335.901 185.053 329.678 187.556 327.738C190.483 325.499 186.093 325.34 186.093 325.34L193.903 317.16C193.379 316.91 192.925 316.534 192.581 316.067C195.115 313.373 196.997 310.134 198.082 306.599C204.658 301.733 206.421 305.382 209.93 304.712C214.144 303.901 212.839 297.131 212.539 295.509C212.24 293.887 207.25 293.499 206.298 293.411C205.469 291.965 204.852 290.29 203.548 290.52C202.613 290.714 202.754 292.053 203.16 293.411C199.757 293.887 189.937 298.365 187.891 303.231C187.891 303.337 187.803 303.425 187.768 303.531C187.292 301.68 187.01 300.393 187.01 300.393C181.721 302.403 166.188 314.074 158.166 317.618C150.144 321.162 145.824 319.963 145.824 319.963C145.824 319.963 140.041 317.724 137.732 314.48C135.422 311.236 131.931 313.916 131.931 313.916L132.866 311.729L133.835 309.861C131.261 310.354 130.397 305.841 130.397 305.841C131.632 305.259 132.954 301.662 128.634 299.829C126.225 298.839 123.871 297.721 121.582 296.479C124.491 294.24 122.516 290.943 118.479 289.021C114.441 287.099 103.264 288.245 103.264 288.245C95.5156 289.917 87.9766 292.442 80.7843 295.774C80.0536 294.628 78.9863 293.738 77.729 293.224C76.4716 292.71 75.0859 292.598 73.7623 292.903C72.4387 293.208 71.2421 293.916 70.3369 294.929C69.4318 295.941 68.8624 297.21 68.7072 298.559C66.8907 297.635 64.9054 297.09 62.8717 296.956C60.838 296.823 58.7985 297.104 56.8769 297.783C48.3613 300.587 43.407 304.977 40.5332 309.332L39.6692 309.455C37.2042 309.931 34.9808 311.247 33.3782 313.18C31.7756 315.112 30.8932 317.541 30.8817 320.051C30.8701 322.562 31.7301 324.999 33.3148 326.946C34.8996 328.893 37.1108 330.23 39.5714 330.728C42.0319 331.227 44.5891 330.856 46.8068 329.68C49.0245 328.503 50.7651 326.593 51.7316 324.276C52.6982 321.959 52.8308 319.378 52.1068 316.975C51.3828 314.571 49.8472 312.493 47.7618 311.095C54.3205 304.959 75.689 308.415 55.3783 351.311C32.7227 399.178 45.5579 420.829 57.5469 436.273C61.5491 441.439 67.8962 443.89 75.7419 444.207L66.2741 457.871C61.7379 458.695 57.1319 459.073 52.5221 459C46.9372 458.981 41.4192 457.783 36.3298 455.483C31.2405 453.182 26.6948 449.833 22.9905 445.653C24.5017 443.321 25.1913 440.551 24.9501 437.782C24.7088 435.013 23.5505 432.404 21.6586 430.368C19.7668 428.332 17.2496 426.986 14.5061 426.543C11.7625 426.099 8.94937 426.584 6.51255 427.921C4.07573 429.257 2.15456 431.368 1.05348 433.92C-0.0476126 436.472 -0.265652 439.318 0.433939 442.008C1.13353 444.697 2.71073 447.077 4.91559 448.768C7.12046 450.46 9.82688 451.368 12.606 451.348C24.8418 481.937 73.3617 471.782 113.507 455.72C165.306 434.969 193.286 439.235 287.717 410.709C378.234 383.469 365.116 295.562 344.365 262.363ZM254.694 411.061C246.708 413.054 238.827 414.729 231.14 416.245L240.079 391.121L255.223 409.545L254.694 411.061ZM281.634 403.127C274.582 405.578 267.53 407.659 260.742 409.492L267.6 386.202L281.634 403.127ZM265.626 379.961L256.81 405.19L239.373 384.791C248.293 384.299 257.115 382.675 265.626 379.961ZM101.659 327.174C99.1908 328.32 101.307 330.594 101.307 330.594C96.7049 333.592 93.9369 339.198 92.6851 342.284C89.5468 331.529 84.6102 315.573 76.9055 305.77C77.9712 305.495 78.951 304.958 79.7549 304.206C80.5589 303.454 81.1614 302.513 81.5072 301.468C85.5537 304.27 89.2683 307.523 92.5793 311.165C92.4911 323.225 101.624 327.174 101.624 327.174H101.659ZM78.8978 446.358L89.7055 452.494C83.1115 454.363 76.8702 456.02 71.1402 457.095L78.8978 446.358ZM94.9771 450.977L81.7187 444.19C93.7958 443.202 108.553 438.178 123.803 430.579L115.429 444.683C108.377 446.87 101.518 449.038 94.9418 450.977H94.9771ZM128.916 429.45L146.759 434.74C138.084 437.366 129.304 440.187 120.7 442.955L128.916 429.45ZM176.52 426.7C168.744 428.463 160.652 430.614 152.33 433.047L131.508 426.524L135.034 424.602C167.634 405.984 194.115 378.145 224.951 384.051C229.38 384.821 233.878 385.111 238.368 384.915L225.128 417.497C208.978 420.459 193.04 423.033 176.555 426.753L176.52 426.7Z" fill="#1B1425"/>
<path d="M309.544 256.369C308.916 256.129 308.375 255.704 307.994 255.15C307.613 254.595 307.409 253.938 307.411 253.266C307.422 252.662 307.541 252.065 307.763 251.503C309.015 247.976 312.383 246.936 315.785 246.989C323.173 246.989 332.482 251.573 332.552 251.591L332.094 252.525L332.552 251.591L334.915 252.737L332.411 253.513C332.411 253.513 321.127 257.039 313.846 257.039C312.378 257.095 310.913 256.849 309.544 256.316V256.369ZM315.785 249.052C312.682 249.052 310.496 249.916 309.703 252.225C309.57 252.557 309.493 252.909 309.473 253.266C309.473 253.883 309.667 254.112 310.408 254.482C311.507 254.885 312.677 255.059 313.846 254.993C317.73 254.826 321.585 254.235 325.341 253.23C326.734 252.913 328.003 252.578 329.044 252.296C328.233 251.961 327.281 251.591 326.223 251.221C322.886 249.945 319.37 249.201 315.803 249.017L315.785 249.052Z" fill="#1B1425"/>
<path d="M322.009 270.121C320.259 270.026 318.577 269.412 317.178 268.358C316.244 267.895 315.443 267.203 314.851 266.345C314.259 265.488 313.894 264.494 313.793 263.456C313.884 262.513 314.182 261.602 314.667 260.788C315.152 259.974 315.811 259.278 316.596 258.749C318.318 257.422 320.195 256.309 322.185 255.434C324.766 254.275 327.423 253.291 330.137 252.49L331.565 252.084L331.459 253.565C331.459 253.565 330.842 262.381 327.175 267.247C326.6 268.091 325.834 268.788 324.94 269.281C324.045 269.774 323.047 270.05 322.027 270.085L322.009 270.121ZM325.87 256.175C323.032 257.192 320.354 258.611 317.919 260.389C317.375 260.731 316.91 261.184 316.555 261.719C316.199 262.254 315.961 262.858 315.856 263.492C315.856 264.303 316.367 265.36 318.324 266.665C319.39 267.474 320.673 267.946 322.009 268.023C322.715 267.995 323.403 267.797 324.017 267.448C324.631 267.098 325.151 266.606 325.535 266.013C326.612 264.487 327.417 262.788 327.915 260.988C328.503 259.026 328.939 257.022 329.22 254.993C328.338 255.276 327.175 255.681 325.87 256.175Z" fill="#1B1425"/>
<path d="M339.217 285.565C338.948 285.506 338.714 285.343 338.565 285.112C338.417 284.881 338.366 284.6 338.423 284.331C338.556 283.664 338.621 282.984 338.617 282.304C338.617 277.843 336.149 271.355 333.592 266.083C332.922 264.673 332.253 263.35 331.618 262.169C331.899 264.25 332.047 266.346 332.059 268.446C332.059 274.105 330.842 280.435 325.553 283.15C325.432 283.213 325.299 283.252 325.163 283.263C325.027 283.274 324.889 283.258 324.76 283.215C324.63 283.172 324.51 283.104 324.407 283.014C324.304 282.924 324.22 282.814 324.16 282.691C324.036 282.443 324.015 282.156 324.101 281.892C324.186 281.629 324.372 281.409 324.618 281.281C328.709 279.306 329.908 273.911 329.908 268.446C329.882 265.655 329.623 262.871 329.132 260.124C328.931 258.889 328.666 257.665 328.338 256.457C328.28 256.216 328.308 255.962 328.418 255.74C328.527 255.518 328.711 255.341 328.938 255.24C329.168 255.139 329.426 255.124 329.666 255.199C329.906 255.273 330.111 255.432 330.243 255.646C330.243 255.734 340.557 272.095 340.627 282.304C340.628 283.133 340.545 283.96 340.38 284.772C340.329 285.005 340.199 285.214 340.014 285.365C339.828 285.515 339.597 285.598 339.358 285.601H339.146L339.217 285.565Z" fill="#1B1425"/>
<path d="M212.857 305.1C209.275 304.236 205.744 303.177 202.278 301.927L202.631 300.939L202.278 301.927C202.018 301.831 201.805 301.637 201.687 301.387C201.568 301.136 201.553 300.849 201.643 300.587C201.739 300.331 201.93 300.121 202.177 300.003C202.423 299.885 202.706 299.866 202.966 299.952C202.966 299.952 205.275 300.763 209.419 301.962C210.582 302.315 211.905 302.685 213.35 303.073C224.983 305.691 236.883 306.939 248.806 306.793C284.402 306.793 321.374 297.872 337.612 293.411C343.025 291.93 346.11 290.943 346.128 290.943C346.372 290.868 346.635 290.884 346.868 290.987C347.101 291.091 347.289 291.275 347.397 291.507L350.06 297.519C350.163 297.75 350.177 298.012 350.099 298.253C350.021 298.494 349.856 298.697 349.636 298.824C329.308 311.024 304.889 314.921 281.864 314.921C258.536 314.613 235.344 311.312 212.857 305.1ZM281.864 312.84C304.361 312.84 328.074 309.067 347.785 297.519L345.863 293.199C338.952 295.315 292.971 308.873 248.894 308.873C245.103 308.873 241.313 308.785 237.575 308.573C252.21 311.318 267.062 312.746 281.952 312.84H281.864Z" fill="#1B1425"/>
<path d="M198.276 303.337V302.932C279.938 298.026 361.225 288.152 441.687 273.365C561.576 251.115 721.47 207.919 802.836 128.51L724.185 108.852C722.986 110.086 708.97 123.432 641.32 151.977C576.086 179.516 446.112 227.278 197.465 298.312L197.342 297.924C445.795 226.872 575.716 179.146 640.95 151.589C711.72 121.722 723.815 108.517 723.921 108.376V108.288L803.524 128.193L803.259 128.44C767.328 163.613 713.166 194.696 642.237 220.825C585.519 241.7 518.028 259.489 441.634 273.717C361.192 288.529 279.922 298.42 198.276 303.337Z" fill="#1B1425"/>
</g>
<defs>
<clipPath id="clip0_884_10372">
<rect width="893" height="471.095" fill="white" transform="translate(0 0.105011)"/>
</clipPath>
</defs>
</svg>
