<svg width="397" height="72" viewBox="0 0 397 72" fill="none" xmlns="http://www.w3.org/2000/svg">
<g clip-path="url(#clip0_884_10350)">
<path d="M111.091 12.631C111.091 12.631 96.0663 13.4145 71.5022 9.32012C46.9381 5.2257 21.8948 6.96941 16.7286 11.6708C11.5624 16.3722 3.58185 14.8106 1.23559 18.4139C-1.11067 22.0172 14.8505 28.2913 17.5107 38.6377C20.1709 48.9841 15.0047 58.3925 21.7351 57.6089C28.4654 56.8253 22.049 50.3968 24.555 40.6794C27.061 30.9621 37.6962 42.0865 45.5226 34.2508C53.349 26.4152 58.3554 22.9608 68.8365 28.7328C79.3175 34.5047 99.6793 45.6678 114.847 39.8682C130.015 34.0687 151.154 28.7328 157.411 37.043C163.667 45.3532 170.398 51.1527 179.634 45.1987C188.87 39.2447 193.326 31.7898 196.922 35.3986C200.519 39.0074 197.313 54.2098 200.133 53.1944C202.953 52.1791 199.351 34.5378 202.794 31.558C206.236 28.5782 206.313 40.3373 206.159 48.4102C206.004 56.4832 206.076 66.6199 212.129 64.7438C218.182 62.8676 206.621 32.7389 218.804 28.054C230.987 23.3692 230.701 42.1638 228.823 53.8732C226.945 65.5825 231.742 71.4317 236.957 68.2974C242.173 65.1632 234.666 49.2711 235.603 37.3575C236.539 25.444 244.679 29.9357 247.598 34.3281C250.517 38.7205 252.814 39.5537 255.425 39.344C258.035 39.1343 261.582 37.3575 261.786 46.4513C261.99 55.5451 264.711 69.9087 267.756 64.352C270.802 58.7953 269.739 48.6751 272.553 50.2422C275.368 51.8094 276.624 51.39 277.251 47.3121C277.879 43.2343 277.147 41.9817 284.241 39.791C291.335 37.6003 291.648 31.7401 293.003 34.9792C294.358 38.2183 293.554 42.6107 296.132 44.073C298.709 45.5353 298.219 47.417 298.114 51.7045C298.01 55.9921 300.62 60.6935 301.452 55.0485C302.284 49.4035 302.807 37.032 306.045 38.0969C309.284 39.1619 311.988 42.6107 311.884 55.363C311.779 68.1153 315.64 69.2631 318.355 66.1288C321.07 62.9946 315.535 53.062 318.355 44.9118C321.175 36.7616 331.706 30.0681 333.776 34.8744C335.847 39.6806 336.178 72.1932 338.056 71.9835C339.934 71.7738 336.8 50.9706 340.039 46.4789C343.277 41.9872 348.069 32.0546 353.598 38.119C359.128 44.1834 364.553 52.6481 371.124 45.0166C377.694 37.3851 379.264 27.3587 384.585 31.5304C389.905 35.7021 397.313 36.3422 396.999 24.1086C396.685 11.875 377.072 2.7867 356.209 7.70332C335.346 12.6199 321.885 9.58499 299.557 7.38879C277.229 5.19259 268.577 1.11472 256.471 8.32686C244.365 15.539 213.511 12.9289 202.535 10.1037C191.558 7.27843 182.3 2.7867 177.199 5.29743C172.099 7.80816 171.141 7.57088 166.146 4.23796C161.15 0.905033 156.964 -2.74794 151.958 2.99639C146.951 8.74072 131.816 13.4642 111.091 12.631Z" fill="#DFEFFB"/>
<path d="M395.093 18C394.818 22.5635 392.708 24.2024 388.308 25.3556C382.051 27.0111 374.07 29.3563 370.623 34.5267C367.175 39.6972 365.379 42.5279 359.982 38.9412C354.584 35.3544 351.456 32.4354 344.649 37.2858C337.841 42.1362 340.501 29.2073 330.329 29.29C320.156 29.3728 317.628 48.1233 315.386 49.1221C313.145 50.1208 313.585 44.3379 313.976 38.7756C314.368 33.2134 312.324 32.8161 310.457 33.5997C308.59 34.3832 302.24 37.5175 295.195 30.6199C288.151 23.7223 278.221 32.1098 271.959 42.539C265.696 52.9682 265.856 48.3385 265.311 44.2606C264.766 40.1828 263.108 37.363 260.222 36.0387C257.336 34.7143 253.651 25.2122 241.755 25.9957C229.858 26.7793 233.493 45.3587 235.812 53.0344C238.131 60.71 236.28 67.3814 232.293 65.0307C228.305 62.68 230.64 49.0283 231.51 41.6671C232.381 34.306 231.896 23.4574 222.12 23.0877C212.344 22.718 211.028 38.2625 211.788 44.7683C212.548 51.2741 213.043 63.1159 210.774 63.1159C208.505 63.1159 208.428 60.1362 208.345 53.7076C208.263 47.279 208.791 36.9823 206.495 28.9369C204.198 20.8915 189.074 30.5923 183.021 36.4084C176.968 42.2244 170.084 38.4501 162.786 30.6089C155.488 22.7677 135.138 26.7462 118.444 31.6518C101.75 36.5574 77.9957 30.6972 72.1797 25.6426C66.3636 20.588 60.3272 20.428 52.9029 24.2741C45.4786 28.1202 38.6381 34.6205 35.5483 33.9528C32.4585 33.2851 28.6582 32.7775 26.1192 35.0896C23.5801 37.4016 22.049 36.5022 20.3251 33.7597C18.6012 31.0172 15.1645 27.7836 9.8606 23.6064C7.33521 21.5942 4.94348 19.4192 2.70065 17.0951C2.11151 17.4189 1.60606 17.8762 1.22461 18.4305C-1.12165 22.0393 14.8395 28.3078 17.4997 38.6542C20.1599 49.0007 14.9937 58.409 21.7241 57.6254C28.4544 56.8419 22.038 50.4133 24.544 40.6959C27.05 30.9786 37.6852 42.1031 45.5116 34.2674C53.338 26.4317 58.3444 22.9774 68.8255 28.7493C79.3065 34.5212 99.6683 45.6843 114.836 39.8848C130.004 34.0853 151.143 28.7493 157.4 37.0595C163.656 45.3698 170.387 51.1693 179.623 45.2153C188.859 39.2612 193.315 31.8063 196.911 35.4151C200.508 39.024 197.302 54.2263 200.122 53.211C202.942 52.1956 199.34 34.5543 202.783 31.5745C206.225 28.5948 206.302 40.3538 206.148 48.4268C205.994 56.4997 206.065 66.6365 212.118 64.7603C218.171 62.8842 206.61 32.7554 218.793 28.0706C230.976 23.3857 230.69 42.1803 228.812 53.8897C226.934 65.5991 231.731 71.4482 236.947 68.314C242.162 65.1797 234.655 49.2876 235.592 37.374C236.528 25.4605 244.668 29.9522 247.587 34.3446C250.506 38.737 252.803 39.5702 255.414 39.3606C258.024 39.1509 261.571 37.374 261.775 46.4679C261.979 55.5617 264.711 69.9087 267.756 64.352C270.802 58.7953 269.739 48.6751 272.553 50.2422C275.368 51.8094 276.624 51.39 277.251 47.3121C277.879 43.2343 277.147 41.9816 284.241 39.791C291.335 37.6003 291.648 31.7401 293.003 34.9792C294.358 38.2183 293.554 42.6107 296.132 44.073C298.709 45.5353 298.219 47.417 298.114 51.7045C298.01 55.9921 300.62 60.6935 301.452 55.0485C302.284 49.4035 302.807 37.0319 306.045 38.0969C309.284 39.1619 311.988 42.6107 311.884 55.363C311.779 68.1153 315.64 69.2631 318.355 66.1288C321.07 62.9945 315.535 53.062 318.355 44.9117C321.175 36.7615 331.706 30.0681 333.776 34.8743C335.847 39.6806 336.178 72.1932 338.056 71.9835C339.934 71.7738 336.8 50.9706 340.039 46.4789C343.277 41.9872 348.069 32.0546 353.599 38.119C359.128 44.1834 364.553 52.6481 371.124 45.0166C377.695 37.3851 379.264 27.3587 384.585 31.5304C389.905 35.7021 397.313 36.3422 396.999 24.1086C396.911 21.94 396.253 19.833 395.093 18Z" fill="#9FC0E4"/>
<path d="M373.988 21.2557C381.605 18.4967 386.986 15.7376 389.718 12.4599C382.09 7.11286 369.4 4.61316 356.204 7.71984C335.335 12.6309 321.88 9.60151 299.552 7.40531C277.224 5.20912 268.571 1.13125 256.466 8.34339C244.36 15.5555 213.506 12.9455 202.529 10.1202C191.552 7.29495 182.294 2.80322 177.194 5.31395C172.094 7.82468 171.136 7.58741 166.14 4.25448C161.145 0.921558 156.959 -2.73142 151.952 3.01291C146.946 8.75724 131.833 13.4642 111.108 12.6309C111.108 12.6309 96.0828 13.4145 71.5187 9.32009C46.9546 5.22567 21.9113 6.96938 16.7452 11.6708C15.7761 12.5413 14.6756 13.2528 13.4846 13.7787C18.5131 18.5463 26.7636 23.3636 38.4949 20.9522C59.6222 16.5378 82.0053 12.0129 94.8326 19.5396C107.66 27.0663 122.217 26.4372 138.96 18.9105C155.703 11.3838 162.092 7.15148 160.241 12.9565C158.391 18.7615 159.619 20.1686 163.998 17.8179C168.376 15.4672 175.426 7.46601 173.862 13.111C172.298 18.756 179.65 18.127 194.984 16.2453C210.317 14.3636 241.463 18.287 262.43 18.127C283.398 17.9669 292.789 4.9608 315.634 14.6781C338.48 24.3955 355.631 27.8995 373.988 21.2557Z" fill="#FDFFFF"/>
</g>
<defs>
<clipPath id="clip0_884_10350">
<rect width="396" height="72" fill="white" transform="translate(0.998779 4.57764e-05)"/>
</clipPath>
</defs>
</svg>
